<svg xmlns="http://www.w3.org/2000/svg" xmlns:xlink="http://www.w3.org/1999/xlink" viewBox="0 0 3453.68 545.73"><defs><style>.cls-1{fill:none;}.cls-2{clip-path:url(#clip-path);}.cls-3{fill:#fff;}</style><clipPath id="clip-path" transform="translate(-55.37 -55.37)"><rect class="cls-1" width="3564.44" height="656.47"/></clipPath></defs><g id="Capa_2" data-name="Capa 2"><g id="Capa_1-2" data-name="Capa 1"><g class="cls-2"><path class="cls-3" d="M2526.47,453.69q0-14.9,59.62-90.25,9.1-11.61,17-22.37t9.52-13.25a60.11,60.11,0,0,1,6.21-9.1q4.56-5.82,8.69-11.6a110,110,0,0,0,7.46-12q3.32-6.23,5-9.53,1.65-5-.83-6.2c-1.66-.83-6.62-1.81-14.91-2.9a225.2,225.2,0,0,1-22.35-2.91c-7.74-1.38-15.18-2.88-22.37-4.55s-13.39-3.31-18.63-5-8.7-3-10.34-4.14q-5.8-4.16-5.8-12t6.63-13.67a36.08,36.08,0,0,1,7-4.13c2.48-1.12,5.93-1.66,10.36-1.66a58.12,58.12,0,0,1,11.17,1.24q6.23,1.25,15.33,2.9c4.95,1.09,15.46,2.21,31.47,3.31s35.19,2.07,57.54,2.91,47.07,1.5,74.12,2.07,54.11.81,81.15.81h37.69a204.84,204.84,0,0,1,21.11.83c5,.56,8.28,1.24,9.94,2.08a45.55,45.55,0,0,1,5,2.9q13.26,11.59,0,24.83l-5.79,5.81h-207l-3.31,7.44q-1.65,2.49-16.15,21.13t-33.55,41q-31.46,38.1-50.08,61.7t-18.64,26.91q0,2.51,15.33-4.14t36.83-17.4q21.55-10.75,44.32-23.59t37.67-22.78q17.4-11.58,26.92-16.55t14.49-5q16.58,0,16.55,17.39a22.6,22.6,0,0,1-.81,6.22c-.56,1.93-2.07,4-4.57,6.21a126.72,126.72,0,0,1-11.58,8.7q-7.87,5.37-21.95,14.49-9.93,6.61-20.29,14.08t-15.32,11.58q-9.95,5.82-28.16,15.75T2630,459.91q-19.89,8.68-38.93,15.32t-31.47,6.62a39.66,39.66,0,0,1-22.78-7.05q-10.33-7-10.34-21.11M2267.27,515q8.27,0,27.33-7.86t43.89-19.88q24.83-12,52.15-26.91t50.53-28.57q23.17-13.67,40.58-24.43t21.52-15.74c2.76-2.76,4-4.41,3.74-5s-3.19-.83-8.7-.83q-5.79,0-19.06-.41t-28.14-.83q-14.91-.44-29-1.24c-9.39-.55-16.56-1.12-21.54-1.66q-27.3-1.66-41.39-11.59t-11.6-25.68q2.49-15.72,21.94-30.21t61.69-34.38q37.28-18.23,54.66-18.22a28.76,28.76,0,0,1,19.89,7.45,24.53,24.53,0,0,1,8.27,19.05q0,11.6-5.79,19.88T2490,316.22a6.72,6.72,0,0,1-4.14-1.24c-1.1-.81-3-2.07-5.8-3.72l-9.93-6.62-16.56,8.27q-8.28,3.31-17.8,7.88t-17,8.69c-5,2.75-9.11,5.25-12.42,7.44s-5,3.6-5,4.15q0,1.65,17.8,2.48t42.65,1.66q24.87.82,39.76,1.65a215.1,215.1,0,0,1,24.42,2.5c6.36,1.09,11.18,2.76,14.49,5a42.68,42.68,0,0,1,9.12,8.28c4.41,4.42,6.77,10.08,7,17a36.76,36.76,0,0,1-4.55,19.47q-4.14,8.28-23.6,23.18t-47.21,32.3q-27.74,17.39-60.44,35.6t-63,32.71q-30.21,14.52-54.63,24t-36,9.53c-8.29,0-14.08-2.22-17.39-6.62q-9.95-11.62-4.15-23.19T2267.27,515Zm-210.33-82.81c0,2.21.81,3.31,2.48,3.31a28.94,28.94,0,0,0,6.19-1.24q4.57-1.23,12.84-2.89,12.43-3.31,31.07-11.6T2146,402.35q17.81-9.11,30.23-17c8.28-5.26,12.14-8.7,11.59-10.36a48.65,48.65,0,0,0-.84-6.63,65.84,65.84,0,0,1-.81-10.76,53.73,53.73,0,0,1-.83-9.1c0-2.77-.55-4.7-1.67-5.8-.55-.56-3,0-7.44,1.65s-9.53,3.74-15.32,6.22-11.6,5.24-17.39,8.27-10.91,5.93-15.32,8.69A227.09,227.09,0,0,0,2103.3,385q-12.42,9.93-22.78,19.46t-17,17C2059.13,426.37,2056.94,430,2056.94,432.16Zm-37.28-19.88q4.13-7.44,13.26-17.79A250,250,0,0,1,2054,373.37q12-10.78,25.25-21.12t24.86-17.81a313.26,313.26,0,0,1,50.91-24q25.27-9.12,42.65-9.11,16.58,0,25.68,12t9.11,28.57V356l7.45-4.14a91,91,0,0,0,10.35-6.63q7-5,15.32-11.6c6.07-5.51,11.19-9.94,15.31-13.25a79.27,79.27,0,0,1,10.77-7.45,33,33,0,0,1,8.29-3.31,40.64,40.64,0,0,1,8.7-.82q9.11,0,14.89,4.55a18.13,18.13,0,0,1,7,10.77,19.59,19.59,0,0,1-2.07,12.82q-3.32,6.65-12.43,10.77-6.61,3.31-22.35,16.56t-31.47,28.57q-15.74,15.33-27.34,27.75T2225,434.65h.83c0,.55.55.82,1.65.82q8.29,0,37.28-11.59t67.9-30.63q30.64-14.91,38.08-13.25,6.64,1.65,10.77,8.27t2.5,13.24q-1.68,5-17,14.92a406.72,406.72,0,0,1-36.43,20.7q-21.12,10.77-43.48,20.28t-38.09,12.84q-19.05,4.14-31.47,4.15-43.08,0-43.06-30.64V433l-30.64,15.74q-53.82,25.66-85.3,25.67a73.07,73.07,0,0,1-27.33-5q-17.38-6.62-20.28-21.52T2019.66,412.28ZM1628.79,537.34q0-2.51,10.77-22.37t29.4-50.92q18.63-31.05,43-70.8t51.76-82.82q29-45.54,47.62-74.94t29.81-48q11.19-18.65,17.39-29.4T1868.93,139q14.08-27.31,30.65-27.33h5a8.64,8.64,0,0,0,7-3.72q2.93-3.72,8.7-17,9.1-19,17-27.33c5.23-5.52,10.9-8.29,17-8.29A24.43,24.43,0,0,1,1970.81,62q7.44,6.61,7.44,13.25,0,7.45-7.44,14.9-4.15,4.16-19.06,34t-33.54,70q-18.63,40.17-37.27,82.39t-30.21,71.21l-9.12,23.18,8.29-9.93q9.11-10.77,34.78-36.84t60-58.39q34.35-32.28,72.86-67.07t73.29-63.77q34.77-29,61.7-47.62t37.67-18.63a15.9,15.9,0,0,1,11.6,5c2.77,2.74,4.42,5.51,5,8.27s0,6.21-1.65,10.36-4.84,9.39-9.53,15.73-10.91,14.22-18.63,23.6q-17.4,20.7-39.74,53t-47.63,72q-25.26,39.75-52.59,85.3t-53.82,93.57q-15.72,28.15-25.68,47.62t-15.72,33.55a162.79,162.79,0,0,0-8.29,24.83,92.41,92.41,0,0,0-2.48,20.7c0,11.05-.55,17.94-1.65,20.71s-3.88,6.07-8.29,9.93q-9.94,8.3-18.22,8.29c-4.41,0-8-1.11-10.75-3.31a16.57,16.57,0,0,1-8.7-12.84q-1.25-8.7,2.89-28.57,1.67-10.75,5-24a225.7,225.7,0,0,1,6.63-22.35q9.1-27.33,52.17-98.14t107.65-184.26c3.86-5.51,5-8.27,3.31-8.27q-1.65,0-13.65,9.94t-41,36.43Q1931,332.79,1889.64,378.33t-54.66,77q-7.44,17.38-12.41,22.36t-16.56,5q-9.12,0-17-7.88a37.81,37.81,0,0,1-10.34-18.63q-4.14-15.72,5.79-50.09t30.64-82.41q4.14-11.58,7.86-20.7c2.5-6.07,3.74-9.39,3.74-9.93q0-1.65-12,16.15t-28.57,43.06q-16.58,25.26-34,53.83t-29,48.44q-7.44,13.26-12.84,24.43c-3.57,7.45-5.37,12.29-5.37,14.48q0,5-6.64,15.75a154.91,154.91,0,0,1-15.72,21.11A197.46,197.46,0,0,1,1664,548.93q-9.51,8.28-14.48,8.28-6.64,0-13.68-6.62T1628.79,537.34ZM1221.37,327q-9.11,4.14-16.15,7.45c-4.69,2.22-7,3.6-7,4.15s2.07.83,6.22.83,9.24-.28,15.32-.83,12.29-1.38,18.63-2.48,11.74-2.21,16.15-3.32q14.07-3.32,19.87-6.64c3.86-2.19,5.8-4.12,5.8-5.79a2.35,2.35,0,0,0-.82-1.64c-2.21-1.67-5.81-2.5-10.77-2.5a169.2,169.2,0,0,0-17.8,1.66Q1237.92,319.53,1221.37,327ZM1054.09,431.34q0-14.91,9.93-29.83t35.6-38.91q58.82-55.49,99.38-70.4t63.78-14.89a87.54,87.54,0,0,1,38.08,8.27Q1328.19,298,1328.61,308c.26,6.62.41,9.93.41,9.93q0,19-26.5,38.1-19.05,12.4-50.51,17.8a353.18,353.18,0,0,1-59.63,5.38c-7.72,0-15.46-.28-23.18-.83l-24-1.65-19.87,18.21q-26.52,24.84-26.5,32.31t22.35,7.45h5q20.7-.86,52.58-7.88t65.83-17.8q34-10.75,64.59-23.59T1358,360.94q14.91-9.93,26.49-9.93a56.93,56.93,0,0,1,9.94,1.66c5,1.09,7.46,6.62,7.46,16.56q0,19-65.43,47.2a970.79,970.79,0,0,1-92.75,33.95q-48,14.91-87.78,20.71-23.19,3.32-34.37,3.31a120.84,120.84,0,0,1-23.59-2.48q-19.87-4.16-31.88-14.92T1054.09,431.34ZM1081.42,245q6.61-5.79,14.06-5.79a18.79,18.79,0,0,1,12.43,5q6.63,5,8.28,11.58a19.55,19.55,0,0,1-.41,12,22,22,0,0,1-7.46,9.53,20.39,20.39,0,0,1-12.84,4.14q-9.93,0-14.89-5t-5-16.15Q1075.61,249.16,1081.42,245ZM963,349.36q21.54-17.4,39.34-31.07T1024.26,303a30.7,30.7,0,0,1,17.4-5q14.07,0,19,9.11,8.26,14.89-13.24,29-7.47,5-26.52,19.45t-38.5,30.23Q963,401.53,948.09,414T934,427.2c.55.54,5-.83,13.25-4.15s19.32-8,33.12-14.08,29.54-13,47.2-20.7,36.16-15.73,55.49-24a33.84,33.84,0,0,1,11.6-2.48,15.92,15.92,0,0,1,14.07,7.46q5,7.44,1.65,18.22-.81,2.48-7.45,7.44a147.31,147.31,0,0,1-15.32,9.94c-5.79,3.31-11.73,6.5-17.8,9.52s-11,5.39-14.91,7q-4.14,1.65-20.28,7.87t-34.38,14.49q-18.19,8.28-36.43,15.72t-25.67,9.94a105,105,0,0,1-17.39,3.31,153.39,153.39,0,0,1-15.74.84,96.31,96.31,0,0,1-21.52-2.48c-7.19-1.67-11.89-6.35-14.08-14.09-1.67-5-1.38-10.34.83-16.15s6.89-12.82,14.07-21.11,17.12-18.08,29.82-29.4S943.11,365.37,963,349.36Zm53.82-68.74q-1.65,2.47-12,13.25t-25.66,25.66q-15.33,14.93-34,32.31t-36.85,34Q811.45,474.38,763.4,474.4a39.48,39.48,0,0,1-7.44-.83q-7.46-1.67-14.91-9.11T732,449.55a21.52,21.52,0,0,1-.84-6.63q0-6.62,2.91-18.63t10.34-29.4q4.15-9.93,13.25-27.33t18.63-34.36q9.54-17,17-30.23c5-8.82,8-14.08,9.1-15.73q3.31-5,14.08-4.55t14.91,4.55c2.75,2.77,4.41,5,5,6.63a15.94,15.94,0,0,1,.83,5,35.2,35.2,0,0,1-1.24,7.45q-1.25,5-6.63,16.15t-15.32,30.23q-19,35.59-27.75,54.65c-5.79,12.71-8.7,20.42-8.7,23.19v.83h.83q.83,0,8.29-4.14t18.21-10.77Q824.69,404,864,370.06t88.2-81.17q11.58-10.75,18.22-17t10.77-9.53a21,21,0,0,1,7.44-4.15,27.42,27.42,0,0,1,6.63-.82q11.6,0,17.39,6.21c3.88,4.14,5.8,7.88,5.8,11.19A13.42,13.42,0,0,1,1016.81,280.62Zm-448,96.06q1.65.82,6.2.82h22.37a27.18,27.18,0,0,0,7.86-.82c1.65,0,4-1.24,7-3.73a112.08,112.08,0,0,0,8.7-7.87q17.4-19.86-4.14-22.35h-1.65q-9.1,0-19,5.39c-6.63,3.57-11,7.86-13.25,12.82a12.5,12.5,0,0,1-9.11,8.29q-5,1.65-7,4.14C565.36,375,566.05,376.14,568.81,376.68Zm-89.44,92.74q.83-.82,12-8.27t26.09-16.56q15.74-9.93,26.49-17.39t12.42-9.11q1.67-1.66-7.45-5.81-9.95-4.14-13.26-7.45a3.34,3.34,0,0,0-2.48-.82q-2.49,0-14.07,11.59-5.8,5.77-13.25,14.91t-13.68,17.8Q486,457,481.85,463.22T479.37,469.42ZM452,434.65q13.26-17.4,31.48-39.76a441.9,441.9,0,0,1,39.74-42.64,238.85,238.85,0,0,1,45.55-34q24-13.65,48.85-13.65,28.15,0,43.48,13.24t11.18,34l-1.65,7.45,24.83-6.62q9.93-2.49,17.82-5a94.41,94.41,0,0,0,9.51-3.31c1.11,0,4.14-.27,9.12-.83s10.75-1.38,17.39-2.48q5.79-.82,9.51-1.24a60.83,60.83,0,0,1,7-.41,27.56,27.56,0,0,1,14.89,4.13q9.12,4.14,10.78,12.84a19.41,19.41,0,0,1-4.15,16.15,33.59,33.59,0,0,1-5,4.14q-2.51,1.65-9.94,3.72T751,385.79q-14.09,3.31-40.58,8.29l-72,14.89-53,37.26Q555.54,467,533.6,481.43t-38.5,23.2a225.2,225.2,0,0,1-28.16,12.82q-11.58,4.14-20.7,4.15c-5.51,0-9.66-.56-12.42-1.65q-19.87-6.65-15.32-26.09T452,434.65ZM55.37,537.34q0-2.51,10.77-22.37t29.4-50.92q18.63-31.05,43.06-70.8t51.75-82.82q29-45.54,47.62-74.94t29.81-48q11.19-18.65,17.39-29.4T295.52,139q14.07-27.31,30.63-27.33h5a8.66,8.66,0,0,0,7-3.72q2.91-3.72,8.69-17,9.11-19,17-27.33t17-8.29A24.41,24.41,0,0,1,397.39,62q7.44,6.61,7.44,13.25,0,7.45-7.44,14.9-4.14,4.16-19.06,34t-33.54,70q-18.63,40.17-37.26,82.39t-30.22,71.21l-9.12,23.18,8.29-9.93q9.11-10.77,34.78-36.84t60-58.39q34.35-32.28,72.86-67.07t73.29-63.77q34.78-29,61.7-47.62t37.68-18.63a15.9,15.9,0,0,1,11.6,5c2.76,2.74,4.41,5.51,5,8.27s0,6.21-1.65,10.36-4.84,9.39-9.53,15.73-10.9,14.22-18.63,23.6q-17.4,20.7-39.74,53t-47.63,72Q491,296.35,463.63,341.9T409.8,435.47q-15.72,28.15-25.67,47.62T368.4,516.64a162.79,162.79,0,0,0-8.29,24.83,92.41,92.41,0,0,0-2.48,20.7c0,11.05-.55,17.94-1.65,20.71s-3.88,6.07-8.28,9.93q-9.94,8.3-18.23,8.29c-4.41,0-8-1.11-10.75-3.31A16.57,16.57,0,0,1,310,585q-1.25-8.7,2.89-28.57,1.66-10.75,5-24A228.7,228.7,0,0,1,324.51,510q9.11-27.33,52.17-98.14T484.33,227.61q5.81-8.27,3.31-8.27-1.63,0-13.65,9.94t-41,36.43q-75.37,67.08-116.77,112.62t-54.65,77q-7.45,17.38-12.42,22.36t-16.56,5q-9.12,0-17-7.88a37.75,37.75,0,0,1-10.35-18.63q-4.14-15.72,5.79-50.09t30.64-82.41q4.16-11.58,7.87-20.7c2.49-6.07,3.73-9.39,3.73-9.93q0-1.65-12,16.15t-28.58,43.06q-16.56,25.26-34,53.83t-29,48.44q-7.46,13.26-12.84,24.43c-3.58,7.45-5.38,12.29-5.38,14.48q0,5-6.64,15.75a154.08,154.08,0,0,1-15.72,21.11,197.46,197.46,0,0,1-18.64,18.64q-9.51,8.28-14.48,8.28-6.64,0-13.67-6.62T55.37,537.34Z" transform="translate(-55.37 -55.37)"/><path class="cls-3" d="M3219.6,515q8.27,0,27.33-7.86t43.89-19.88q24.84-12,52.16-26.91t50.53-28.57q23.16-13.67,40.57-24.43t21.52-15.74q4.16-4.14,3.73-5t-8.69-.83q-5.79,0-19-.41t-28.15-.83q-14.89-.44-29-1.24c-9.38-.55-16.56-1.12-21.53-1.66q-27.33-1.66-41.4-11.59t-11.6-25.68q2.49-15.72,21.95-30.21t61.68-34.38q37.27-18.23,54.66-18.22a28.71,28.71,0,0,1,19.88,7.45,24.54,24.54,0,0,1,8.28,19.05q0,11.6-5.79,19.88t-18.23,8.27a6.74,6.74,0,0,1-4.14-1.24c-1.1-.81-3-2.07-5.79-3.72l-9.94-6.62-16.56,8.27q-8.3,3.31-17.8,7.88t-17,8.69c-5,2.75-9.11,5.25-12.42,7.44s-5,3.6-5,4.15q0,1.65,17.79,2.48t42.65,1.66q24.87.82,39.76,1.65a215.31,215.31,0,0,1,24.43,2.5c6.35,1.09,11.17,2.76,14.48,5a42.68,42.68,0,0,1,9.12,8.28q6.63,6.63,7,17a36.77,36.77,0,0,1-4.56,19.47q-4.14,8.28-23.6,23.18t-47.2,32.3q-27.73,17.39-60.45,35.6t-62.94,32.71q-30.21,14.52-54.65,24t-36,9.53c-8.29,0-14.08-2.22-17.39-6.62q-9.93-11.62-4.14-23.19T3219.6,515m-241-166.44q0-10.77,9.11-25.26a147.62,147.62,0,0,1,22.35-27.33A155.25,155.25,0,0,1,3038.65,274q15.33-9.12,26.92-9.12,9.12,0,14.49,5t5.38,14.08a11.38,11.38,0,0,1-4.14,8.7q-4.12,3.72-22.36,17a197,197,0,0,0-22.77,19.46q-10.34,10.37-7.86,12.84.81.83,15.72-2.9t36.45-10.35q34.79-9.93,58.79-15.32T3179,308q30.64,0,30.65,23.18,0,7.47-7.46,15.73t-31.47,24.85q-35.59,24.84-48.44,34t-11.18,10.77q.83.82,19-5.8t43.89-16.14q25.68-9.54,54.25-20.71t50.1-20.3q21.53-9.09,38.08-15.31t19.06-6.21a15.52,15.52,0,0,1,9.1,2.89,18.2,18.2,0,0,1,6.22,7.46,17.81,17.81,0,0,1,1.65,9.12,11.16,11.16,0,0,1-4.56,7.86q-7.44,5-28.56,15.32t-48.87,22.78q-27.73,12.41-59.21,25.25t-60,23.59q-28.58,10.77-50.93,17.4t-32.3,6.62q-13.23,0-20.71-7.45-14.06-14.08-2.47-35.6,5.79-9.94,19.87-24.43a280.4,280.4,0,0,1,29-26.09q7.44-5.81,12.84-9.93c3.58-2.76,5.1-4.15,4.55-4.15q-.82-.83-10.77,2.08t-24,7q-33.14,9.93-50.51,9.94a62.24,62.24,0,0,1-14.92-2.08A50.39,50.39,0,0,1,2995.6,373a49.76,49.76,0,0,1-12-10.77A21.32,21.32,0,0,1,2978.62,348.53Zm-106-21.54q-9.12,4.14-16.16,7.45t-7,4.15q0,.82,6.21.83c4.15,0,9.25-.28,15.33-.83s12.28-1.38,18.62-2.48,11.75-2.21,16.16-3.32q14.07-3.32,19.87-6.64t5.79-5.79a2.31,2.31,0,0,0-.82-1.64q-3.32-2.5-10.76-2.5a169.2,169.2,0,0,0-17.8,1.66Q2889.18,319.53,2872.63,327ZM2705.35,431.34q0-14.91,9.94-29.83t35.6-38.91q58.8-55.49,99.37-70.4T2914,277.31a87.57,87.57,0,0,1,38.08,8.27Q2979.45,298,2979.86,308c.28,6.62.41,9.93.41,9.93q0,19-26.49,38.1-19.05,12.4-50.51,17.8a353.2,353.2,0,0,1-59.64,5.38c-7.72,0-15.46-.28-23.18-.83l-24-1.65-19.88,18.21q-26.51,24.84-26.49,32.31t22.35,7.45h5q20.7-.86,52.59-7.88t65.83-17.8q33.95-10.75,64.59-23.59t48.87-24.44q14.89-9.93,26.5-9.93a57,57,0,0,1,9.93,1.66q7.44,1.63,7.45,16.56,0,19-65.42,47.2A969.8,969.8,0,0,1,2895,450.38q-48,14.91-87.78,20.71-23.19,3.32-34.37,3.31a120.84,120.84,0,0,1-23.59-2.48q-19.87-4.16-31.88-14.92T2705.35,431.34Z" transform="translate(-55.37 -55.37)"/></g></g></g></svg>